<mxfile host="65bd71144e">
    <diagram id="GFclDaCIk4YAcfMqffFD" name="Page-1">
        <mxGraphModel dx="2208" dy="920" grid="1" gridSize="10" guides="1" tooltips="1" connect="1" arrows="1" fold="1" page="1" pageScale="1" pageWidth="850" pageHeight="1100" math="0" shadow="0">
            <root>
                <mxCell id="0"/>
                <mxCell id="1" parent="0"/>
                <mxCell id="2" value="" style="strokeWidth=1;shadow=0;dashed=0;align=center;html=1;shape=mxgraph.mockup.containers.browserWindow;rSize=0;strokeColor=#666666;strokeColor2=#008cff;strokeColor3=#c4c4c4;mainText=,;recursiveResize=0;" parent="1" vertex="1">
                    <mxGeometry x="210" y="480" width="850" height="1340" as="geometry"/>
                </mxCell>
                <mxCell id="3" value="Gamestopia" style="strokeWidth=1;shadow=0;dashed=0;align=center;html=1;shape=mxgraph.mockup.containers.anchor;fontSize=17;fontColor=#666666;align=left;" parent="2" vertex="1">
                    <mxGeometry x="60" y="12" width="170" height="26" as="geometry"/>
                </mxCell>
                <mxCell id="4" value="https://www.draw.io" style="strokeWidth=1;shadow=0;dashed=0;align=center;html=1;shape=mxgraph.mockup.containers.anchor;rSize=0;fontSize=17;fontColor=#666666;align=left;" parent="2" vertex="1">
                    <mxGeometry x="130" y="60" width="250" height="26" as="geometry"/>
                </mxCell>
                <mxCell id="585" value="Pricing" style="text;html=1;strokeColor=none;fillColor=none;align=center;verticalAlign=middle;whiteSpace=wrap;rounded=0;fontSize=24;" parent="2" vertex="1">
                    <mxGeometry x="365" y="270" width="120" height="30" as="geometry"/>
                </mxCell>
                <mxCell id="595" value="&lt;p style=&quot;line-height: 150%;&quot;&gt;&lt;span style=&quot;font-size: 20px;&quot;&gt;&lt;b&gt;&lt;br&gt;&lt;br&gt;$35/mo&lt;/b&gt;&lt;/span&gt;&lt;br style=&quot;font-size: 14px&quot;&gt;&lt;br style=&quot;font-size: 14px&quot;&gt;Three games out at a time&lt;br&gt;Free standard shipping&lt;/p&gt;" style="html=1;shadow=0;dashed=0;shape=mxgraph.bootstrap.rrect;rSize=5;strokeColor=#6C767D;html=1;whiteSpace=wrap;fillColor=#ffffff;fontColor=#212529;verticalAlign=top;align=center;spacing=20;spacingBottom=0;fontSize=14;" parent="2" vertex="1">
                    <mxGeometry x="315" y="355" width="220" height="245" as="geometry"/>
                </mxCell>
                <mxCell id="596" value="Pro" style="html=1;shadow=0;dashed=0;shape=mxgraph.bootstrap.topButton;rSize=5;perimeter=none;whiteSpace=wrap;fillColor=#F7F7F7;strokeColor=#6C767D;fontColor=#6C767D;resizeWidth=1;fontSize=18;align=center;spacing=20;" parent="595" vertex="1">
                    <mxGeometry width="220" height="50" relative="1" as="geometry"/>
                </mxCell>
                <mxCell id="597" value="&lt;p style=&quot;line-height: 150%;&quot;&gt;&lt;span style=&quot;font-size: 20px;&quot;&gt;&lt;b&gt;&lt;br&gt;&lt;br&gt;$55/mo&lt;/b&gt;&lt;/span&gt;&lt;br style=&quot;font-size: 14px&quot;&gt;&lt;br style=&quot;font-size: 14px&quot;&gt;Five games out at a time&lt;br&gt;Free express shipping&lt;br&gt;New-release reservation&lt;br&gt;Access to lucky draw&lt;/p&gt;" style="html=1;shadow=0;dashed=0;shape=mxgraph.bootstrap.rrect;rSize=5;strokeColor=#6C767D;html=1;whiteSpace=wrap;fillColor=#ffffff;fontColor=#212529;verticalAlign=top;align=center;spacing=20;spacingBottom=0;fontSize=14;" parent="2" vertex="1">
                    <mxGeometry x="570" y="355" width="220" height="245" as="geometry"/>
                </mxCell>
                <mxCell id="598" value="Elite" style="html=1;shadow=0;dashed=0;shape=mxgraph.bootstrap.topButton;rSize=5;perimeter=none;whiteSpace=wrap;fillColor=#F7F7F7;strokeColor=#6C767D;fontColor=#6C767D;resizeWidth=1;fontSize=18;align=center;spacing=20;" parent="597" vertex="1">
                    <mxGeometry width="220" height="50" relative="1" as="geometry"/>
                </mxCell>
                <mxCell id="550" value="" style="group" parent="2" vertex="1" connectable="0">
                    <mxGeometry y="1130" width="850" height="210" as="geometry"/>
                </mxCell>
                <mxCell id="160" value="" style="rounded=0;whiteSpace=wrap;html=1;" parent="550" vertex="1">
                    <mxGeometry width="850" height="210" as="geometry"/>
                </mxCell>
                <mxCell id="153" value="&lt;b&gt;&lt;font style=&quot;font-size: 16px;&quot;&gt;Follow Us&lt;/font&gt;&lt;/b&gt;" style="text;html=1;align=left;verticalAlign=middle;whiteSpace=wrap;rounded=0;" parent="550" vertex="1">
                    <mxGeometry x="611" y="30" width="120" height="30" as="geometry"/>
                </mxCell>
                <mxCell id="154" value="" style="shape=image;html=1;verticalAlign=top;verticalLabelPosition=bottom;labelBackgroundColor=#ffffff;imageAspect=0;aspect=fixed;image=https://cdn2.iconfinder.com/data/icons/social-media-2285/512/1_Facebook_colored_svg_copy-128.png;fillColor=none;strokeColor=none;" parent="550" vertex="1">
                    <mxGeometry x="614" y="72.5" width="27.5" height="27.5" as="geometry"/>
                </mxCell>
                <mxCell id="155" value="" style="shape=image;html=1;verticalAlign=top;verticalLabelPosition=bottom;labelBackgroundColor=#ffffff;imageAspect=0;aspect=fixed;image=https://cdn3.iconfinder.com/data/icons/2018-social-media-logotypes/1000/2018_social_media_popular_app_logo_twitter-128.png;fillColor=none;strokeColor=none;" parent="550" vertex="1">
                    <mxGeometry x="659" y="72.5" width="27.5" height="27.5" as="geometry"/>
                </mxCell>
                <mxCell id="156" value="" style="shape=image;html=1;verticalAlign=top;verticalLabelPosition=bottom;labelBackgroundColor=#ffffff;imageAspect=0;aspect=fixed;image=https://cdn4.iconfinder.com/data/icons/social-media-flat-7/64/Social-media_Youtube-128.png;fillColor=none;strokeColor=none;" parent="550" vertex="1">
                    <mxGeometry x="702" y="71.25" width="30" height="30" as="geometry"/>
                </mxCell>
                <mxCell id="158" value="" style="dashed=0;outlineConnect=0;html=1;align=center;labelPosition=center;verticalLabelPosition=bottom;verticalAlign=top;shape=mxgraph.weblogos.instagram;fillColor=none;strokeColor=none;" parent="550" vertex="1">
                    <mxGeometry x="747" y="72.5" width="29" height="27.5" as="geometry"/>
                </mxCell>
                <mxCell id="399" value="" style="verticalLabelPosition=bottom;shadow=0;dashed=0;align=center;html=1;verticalAlign=top;strokeWidth=1;shape=mxgraph.mockup.markup.line;strokeColor=#999999;fontSize=16;fontColor=#000000;fillColor=#808080;" parent="550" vertex="1">
                    <mxGeometry x="68" y="150" width="710" height="20" as="geometry"/>
                </mxCell>
                <mxCell id="400" value="&lt;b&gt;&lt;font style=&quot;font-size: 16px;&quot;&gt;Support&lt;/font&gt;&lt;/b&gt;" style="text;html=1;align=left;verticalAlign=middle;whiteSpace=wrap;rounded=0;" parent="550" vertex="1">
                    <mxGeometry x="70" y="30" width="120" height="30" as="geometry"/>
                </mxCell>
                <mxCell id="401" value="&lt;span style=&quot;font-size: 16px;&quot;&gt;&lt;b&gt;Corporate&lt;/b&gt;&lt;/span&gt;" style="text;html=1;align=left;verticalAlign=middle;whiteSpace=wrap;rounded=0;" parent="550" vertex="1">
                    <mxGeometry x="250" y="30" width="120" height="30" as="geometry"/>
                </mxCell>
                <mxCell id="402" value="&lt;b&gt;&lt;font style=&quot;font-size: 16px;&quot;&gt;Legal&lt;/font&gt;&lt;/b&gt;" style="text;html=1;align=left;verticalAlign=middle;whiteSpace=wrap;rounded=0;" parent="550" vertex="1">
                    <mxGeometry x="431" y="30" width="120" height="30" as="geometry"/>
                </mxCell>
                <mxCell id="406" value="Privacy Policy" style="text;html=1;strokeColor=none;fillColor=none;align=left;verticalAlign=middle;whiteSpace=wrap;rounded=0;fontSize=13;fontColor=#000000;" parent="550" vertex="1">
                    <mxGeometry x="431" y="60" width="150" height="30" as="geometry"/>
                </mxCell>
                <mxCell id="407" value="Terms &amp;amp; Conditions" style="text;html=1;strokeColor=none;fillColor=none;align=left;verticalAlign=middle;whiteSpace=wrap;rounded=0;fontSize=13;fontColor=#000000;" parent="550" vertex="1">
                    <mxGeometry x="431" y="80" width="150" height="30" as="geometry"/>
                </mxCell>
                <mxCell id="408" value="About Us" style="text;html=1;strokeColor=none;fillColor=none;align=left;verticalAlign=middle;whiteSpace=wrap;rounded=0;fontSize=13;fontColor=#000000;" parent="550" vertex="1">
                    <mxGeometry x="250" y="60" width="150" height="30" as="geometry"/>
                </mxCell>
                <mxCell id="409" value="Our Store" style="text;html=1;strokeColor=none;fillColor=none;align=left;verticalAlign=middle;whiteSpace=wrap;rounded=0;fontSize=13;fontColor=#000000;" parent="550" vertex="1">
                    <mxGeometry x="250" y="80" width="150" height="30" as="geometry"/>
                </mxCell>
                <mxCell id="410" value="Contact Us" style="text;html=1;strokeColor=none;fillColor=none;align=left;verticalAlign=middle;whiteSpace=wrap;rounded=0;fontSize=13;fontColor=#000000;" parent="550" vertex="1">
                    <mxGeometry x="70" y="80" width="150" height="30" as="geometry"/>
                </mxCell>
                <mxCell id="411" value="FAQ" style="text;html=1;strokeColor=none;fillColor=none;align=left;verticalAlign=middle;whiteSpace=wrap;rounded=0;fontSize=13;fontColor=#000000;" parent="550" vertex="1">
                    <mxGeometry x="70" y="60" width="150" height="30" as="geometry"/>
                </mxCell>
                <mxCell id="412" value="Shipping &amp;amp; Return" style="text;html=1;strokeColor=none;fillColor=none;align=left;verticalAlign=middle;whiteSpace=wrap;rounded=0;fontSize=13;fontColor=#000000;" parent="550" vertex="1">
                    <mxGeometry x="70" y="101.25" width="150" height="30" as="geometry"/>
                </mxCell>
                <mxCell id="161" value="" style="group" parent="550" vertex="1" connectable="0">
                    <mxGeometry x="260" y="170" width="330" height="30" as="geometry"/>
                </mxCell>
                <mxCell id="145" value="&amp;nbsp;Copyright&amp;nbsp; &amp;nbsp; &amp;nbsp;2024 | Developed By &lt;i&gt;Team (2)&lt;/i&gt;" style="text;html=1;align=center;verticalAlign=middle;whiteSpace=wrap;rounded=0;" parent="161" vertex="1">
                    <mxGeometry width="330" height="30" as="geometry"/>
                </mxCell>
                <mxCell id="144" value="" style="strokeColor=#0f0f0f;verticalLabelPosition=bottom;shadow=0;dashed=0;verticalAlign=top;strokeWidth=1;html=1;shape=mxgraph.mockup.misc.copyrightIcon;perimeterSpacing=0;" parent="161" vertex="1">
                    <mxGeometry x="105" y="10" width="10" height="10" as="geometry"/>
                </mxCell>
                <mxCell id="609" value="Compare Plans" style="text;html=1;strokeColor=none;fillColor=none;align=center;verticalAlign=middle;whiteSpace=wrap;rounded=0;fontSize=24;" parent="2" vertex="1">
                    <mxGeometry x="327.5" y="670" width="195" height="30" as="geometry"/>
                </mxCell>
                <mxCell id="610" value="" style="verticalLabelPosition=bottom;shadow=0;dashed=0;align=center;html=1;verticalAlign=top;strokeWidth=1;shape=mxgraph.mockup.markup.line;strokeColor=#999999;fontSize=20;" parent="2" vertex="1">
                    <mxGeometry x="90" y="770" width="670" height="20" as="geometry"/>
                </mxCell>
                <mxCell id="616" value="Basic" style="text;html=1;strokeColor=none;fillColor=none;align=center;verticalAlign=middle;whiteSpace=wrap;rounded=0;fontSize=16;" parent="2" vertex="1">
                    <mxGeometry x="330" y="750" width="60" height="30" as="geometry"/>
                </mxCell>
                <mxCell id="617" value="Elite" style="text;html=1;strokeColor=none;fillColor=none;align=center;verticalAlign=middle;whiteSpace=wrap;rounded=0;fontSize=16;" parent="2" vertex="1">
                    <mxGeometry x="660" y="750" width="60" height="30" as="geometry"/>
                </mxCell>
                <mxCell id="618" value="Pro" style="text;html=1;strokeColor=none;fillColor=none;align=center;verticalAlign=middle;whiteSpace=wrap;rounded=0;fontSize=16;" parent="2" vertex="1">
                    <mxGeometry x="495" y="750" width="60" height="30" as="geometry"/>
                </mxCell>
                <mxCell id="620" value="Number of rental at a time" style="text;html=1;strokeColor=none;fillColor=none;align=left;verticalAlign=middle;whiteSpace=wrap;rounded=0;fontSize=14;" parent="2" vertex="1">
                    <mxGeometry x="90" y="790" width="170" height="30" as="geometry"/>
                </mxCell>
                <mxCell id="622" value="1" style="text;html=1;strokeColor=none;fillColor=none;align=center;verticalAlign=middle;whiteSpace=wrap;rounded=0;fontSize=16;" parent="2" vertex="1">
                    <mxGeometry x="330" y="790" width="60" height="30" as="geometry"/>
                </mxCell>
                <mxCell id="624" value="3" style="text;html=1;strokeColor=none;fillColor=none;align=center;verticalAlign=middle;whiteSpace=wrap;rounded=0;fontSize=16;" parent="2" vertex="1">
                    <mxGeometry x="495" y="790" width="60" height="30" as="geometry"/>
                </mxCell>
                <mxCell id="623" value="5" style="text;html=1;strokeColor=none;fillColor=none;align=center;verticalAlign=middle;whiteSpace=wrap;rounded=0;fontSize=16;" parent="2" vertex="1">
                    <mxGeometry x="660" y="790" width="60" height="30" as="geometry"/>
                </mxCell>
                <mxCell id="634" value="" style="html=1;verticalLabelPosition=bottom;labelBackgroundColor=#ffffff;verticalAlign=top;shadow=0;dashed=0;strokeWidth=2;shape=mxgraph.ios7.misc.check;strokeColor=#000000;fontSize=16;" parent="2" vertex="1">
                    <mxGeometry x="355" y="840" width="10" height="8" as="geometry"/>
                </mxCell>
                <mxCell id="635" value="" style="html=1;verticalLabelPosition=bottom;labelBackgroundColor=#ffffff;verticalAlign=top;shadow=0;dashed=0;strokeWidth=2;shape=mxgraph.ios7.misc.check;strokeColor=#000000;fontSize=16;" parent="2" vertex="1">
                    <mxGeometry x="520" y="840" width="10" height="8" as="geometry"/>
                </mxCell>
                <mxCell id="700" value="&lt;p style=&quot;line-height: 150%;&quot;&gt;&lt;span style=&quot;font-size: 20px;&quot;&gt;&lt;b&gt;&lt;br&gt;&lt;br&gt;$20/mo&lt;/b&gt;&lt;/span&gt;&lt;br style=&quot;font-size: 14px&quot;&gt;&lt;br style=&quot;font-size: 14px&quot;&gt;One game out at a time&lt;br&gt;&lt;br&gt;&lt;/p&gt;" style="html=1;shadow=0;dashed=0;shape=mxgraph.bootstrap.rrect;rSize=5;strokeColor=#6C767D;html=1;whiteSpace=wrap;fillColor=#ffffff;fontColor=#212529;verticalAlign=top;align=center;spacing=20;spacingBottom=0;fontSize=14;" parent="2" vertex="1">
                    <mxGeometry x="60" y="355" width="220" height="245" as="geometry"/>
                </mxCell>
                <mxCell id="701" value="Basic" style="html=1;shadow=0;dashed=0;shape=mxgraph.bootstrap.topButton;rSize=5;perimeter=none;whiteSpace=wrap;fillColor=#F7F7F7;strokeColor=#6C767D;fontColor=#6C767D;resizeWidth=1;fontSize=18;align=center;spacing=20;" parent="700" vertex="1">
                    <mxGeometry width="220" height="50" relative="1" as="geometry"/>
                </mxCell>
                <mxCell id="415" value="" style="rounded=0;whiteSpace=wrap;html=1;fontSize=13;" parent="1" vertex="1">
                    <mxGeometry x="1100" y="590" width="360" height="1940" as="geometry"/>
                </mxCell>
                <mxCell id="428" value="" style="group" parent="1" vertex="1" connectable="0">
                    <mxGeometry x="1130" y="670" width="330" height="50" as="geometry"/>
                </mxCell>
                <mxCell id="429" value="" style="html=1;verticalLabelPosition=bottom;align=center;labelBackgroundColor=#ffffff;verticalAlign=top;strokeWidth=2;strokeColor=#000000;shadow=0;dashed=0;shape=mxgraph.ios7.icons.looking_glass;fontSize=15;fontColor=#000000;fillColor=none;" parent="428" vertex="1">
                    <mxGeometry x="270" y="4.939999999999998" width="20" height="20.12" as="geometry"/>
                </mxCell>
                <mxCell id="430" value="&amp;nbsp; Search" style="rounded=1;whiteSpace=wrap;html=1;strokeColor=#000000;fontSize=15;fontColor=#000000;fillColor=none;align=left;" parent="428" vertex="1">
                    <mxGeometry width="300" height="30" as="geometry"/>
                </mxCell>
                <mxCell id="431" value="" style="rounded=0;whiteSpace=wrap;html=1;strokeColor=default;fontSize=13;fontColor=#000000;fillColor=none;" parent="428" vertex="1">
                    <mxGeometry x="-30" y="-10" width="360" height="50" as="geometry"/>
                </mxCell>
                <mxCell id="551" value="" style="group" parent="1" vertex="1" connectable="0">
                    <mxGeometry x="1100" y="2070" width="360" height="460" as="geometry"/>
                </mxCell>
                <mxCell id="529" value="" style="rounded=0;whiteSpace=wrap;html=1;" parent="551" vertex="1">
                    <mxGeometry width="360" height="460" as="geometry"/>
                </mxCell>
                <mxCell id="530" value="&lt;b&gt;&lt;font style=&quot;font-size: 16px;&quot;&gt;Follow Us&lt;/font&gt;&lt;/b&gt;" style="text;html=1;align=left;verticalAlign=middle;whiteSpace=wrap;rounded=0;" parent="551" vertex="1">
                    <mxGeometry x="20" y="308.75" width="120" height="30" as="geometry"/>
                </mxCell>
                <mxCell id="531" value="" style="shape=image;html=1;verticalAlign=top;verticalLabelPosition=bottom;labelBackgroundColor=#ffffff;imageAspect=0;aspect=fixed;image=https://cdn2.iconfinder.com/data/icons/social-media-2285/512/1_Facebook_colored_svg_copy-128.png;fillColor=none;strokeColor=none;" parent="551" vertex="1">
                    <mxGeometry x="23" y="351.25" width="27.5" height="27.5" as="geometry"/>
                </mxCell>
                <mxCell id="532" value="" style="shape=image;html=1;verticalAlign=top;verticalLabelPosition=bottom;labelBackgroundColor=#ffffff;imageAspect=0;aspect=fixed;image=https://cdn3.iconfinder.com/data/icons/2018-social-media-logotypes/1000/2018_social_media_popular_app_logo_twitter-128.png;fillColor=none;strokeColor=none;" parent="551" vertex="1">
                    <mxGeometry x="68" y="351.25" width="27.5" height="27.5" as="geometry"/>
                </mxCell>
                <mxCell id="533" value="" style="shape=image;html=1;verticalAlign=top;verticalLabelPosition=bottom;labelBackgroundColor=#ffffff;imageAspect=0;aspect=fixed;image=https://cdn4.iconfinder.com/data/icons/social-media-flat-7/64/Social-media_Youtube-128.png;fillColor=none;strokeColor=none;" parent="551" vertex="1">
                    <mxGeometry x="111" y="350" width="30" height="30" as="geometry"/>
                </mxCell>
                <mxCell id="534" value="" style="dashed=0;outlineConnect=0;html=1;align=center;labelPosition=center;verticalLabelPosition=bottom;verticalAlign=top;shape=mxgraph.weblogos.instagram;fillColor=none;strokeColor=none;" parent="551" vertex="1">
                    <mxGeometry x="156" y="351.25" width="29" height="27.5" as="geometry"/>
                </mxCell>
                <mxCell id="536" value="&lt;b&gt;&lt;font style=&quot;font-size: 16px;&quot;&gt;Support&lt;/font&gt;&lt;/b&gt;" style="text;html=1;align=left;verticalAlign=middle;whiteSpace=wrap;rounded=0;" parent="551" vertex="1">
                    <mxGeometry x="20" y="20" width="120" height="30" as="geometry"/>
                </mxCell>
                <mxCell id="537" value="&lt;span style=&quot;font-size: 16px;&quot;&gt;&lt;b&gt;Corporate&lt;/b&gt;&lt;/span&gt;" style="text;html=1;align=left;verticalAlign=middle;whiteSpace=wrap;rounded=0;" parent="551" vertex="1">
                    <mxGeometry x="20" y="130" width="120" height="30" as="geometry"/>
                </mxCell>
                <mxCell id="538" value="&lt;b&gt;&lt;font style=&quot;font-size: 16px;&quot;&gt;Legal&lt;/font&gt;&lt;/b&gt;" style="text;html=1;align=left;verticalAlign=middle;whiteSpace=wrap;rounded=0;" parent="551" vertex="1">
                    <mxGeometry x="20" y="220" width="120" height="30" as="geometry"/>
                </mxCell>
                <mxCell id="539" value="Privacy Policy" style="text;html=1;strokeColor=none;fillColor=none;align=left;verticalAlign=middle;whiteSpace=wrap;rounded=0;fontSize=13;fontColor=#000000;" parent="551" vertex="1">
                    <mxGeometry x="20" y="250" width="150" height="30" as="geometry"/>
                </mxCell>
                <mxCell id="540" value="Terms &amp;amp; Conditions" style="text;html=1;strokeColor=none;fillColor=none;align=left;verticalAlign=middle;whiteSpace=wrap;rounded=0;fontSize=13;fontColor=#000000;" parent="551" vertex="1">
                    <mxGeometry x="20" y="270" width="150" height="30" as="geometry"/>
                </mxCell>
                <mxCell id="541" value="About Us" style="text;html=1;strokeColor=none;fillColor=none;align=left;verticalAlign=middle;whiteSpace=wrap;rounded=0;fontSize=13;fontColor=#000000;" parent="551" vertex="1">
                    <mxGeometry x="20" y="160" width="150" height="30" as="geometry"/>
                </mxCell>
                <mxCell id="542" value="Our Store" style="text;html=1;strokeColor=none;fillColor=none;align=left;verticalAlign=middle;whiteSpace=wrap;rounded=0;fontSize=13;fontColor=#000000;" parent="551" vertex="1">
                    <mxGeometry x="20" y="180" width="150" height="30" as="geometry"/>
                </mxCell>
                <mxCell id="543" value="Contact Us" style="text;html=1;strokeColor=none;fillColor=none;align=left;verticalAlign=middle;whiteSpace=wrap;rounded=0;fontSize=13;fontColor=#000000;" parent="551" vertex="1">
                    <mxGeometry x="20" y="70" width="150" height="30" as="geometry"/>
                </mxCell>
                <mxCell id="544" value="FAQ" style="text;html=1;strokeColor=none;fillColor=none;align=left;verticalAlign=middle;whiteSpace=wrap;rounded=0;fontSize=13;fontColor=#000000;" parent="551" vertex="1">
                    <mxGeometry x="20" y="50" width="150" height="30" as="geometry"/>
                </mxCell>
                <mxCell id="545" value="Shipping &amp;amp; Return" style="text;html=1;strokeColor=none;fillColor=none;align=left;verticalAlign=middle;whiteSpace=wrap;rounded=0;fontSize=13;fontColor=#000000;" parent="551" vertex="1">
                    <mxGeometry x="20" y="91.25" width="150" height="30" as="geometry"/>
                </mxCell>
                <mxCell id="546" value="" style="group;align=left;" parent="551" vertex="1" connectable="0">
                    <mxGeometry x="20" y="420" width="330" height="30" as="geometry"/>
                </mxCell>
                <mxCell id="547" value="&amp;nbsp;Copyright&amp;nbsp; &amp;nbsp; &amp;nbsp;2024 | Developed By &lt;i&gt;Team (2)&lt;/i&gt;" style="text;html=1;align=left;verticalAlign=middle;whiteSpace=wrap;rounded=0;" parent="546" vertex="1">
                    <mxGeometry width="330" height="30" as="geometry"/>
                </mxCell>
                <mxCell id="548" value="" style="strokeColor=#0f0f0f;verticalLabelPosition=bottom;shadow=0;dashed=0;verticalAlign=top;strokeWidth=1;html=1;shape=mxgraph.mockup.misc.copyrightIcon;perimeterSpacing=0;align=left;" parent="546" vertex="1">
                    <mxGeometry x="60" y="10" width="10" height="10" as="geometry"/>
                </mxCell>
                <mxCell id="535" value="" style="verticalLabelPosition=bottom;shadow=0;dashed=0;align=center;html=1;verticalAlign=top;strokeWidth=1;shape=mxgraph.mockup.markup.line;strokeColor=#999999;fontSize=16;fontColor=#000000;fillColor=#808080;" parent="546" vertex="1">
                    <mxGeometry y="-20" width="320" height="20" as="geometry"/>
                </mxCell>
                <mxCell id="588" value="Pricing" style="text;html=1;strokeColor=none;fillColor=none;align=center;verticalAlign=middle;whiteSpace=wrap;rounded=0;fontSize=24;" parent="1" vertex="1">
                    <mxGeometry x="1215" y="740" width="120" height="30" as="geometry"/>
                </mxCell>
                <mxCell id="612" value="" style="verticalLabelPosition=bottom;shadow=0;dashed=0;align=center;html=1;verticalAlign=top;strokeWidth=1;shape=mxgraph.mockup.markup.line;strokeColor=#999999;fontSize=20;" parent="1" vertex="1">
                    <mxGeometry x="300" y="1290" width="670" height="20" as="geometry"/>
                </mxCell>
                <mxCell id="613" value="" style="verticalLabelPosition=bottom;shadow=0;dashed=0;align=center;html=1;verticalAlign=top;strokeWidth=1;shape=mxgraph.mockup.markup.line;strokeColor=#999999;fontSize=20;" parent="1" vertex="1">
                    <mxGeometry x="300" y="1330" width="670" height="20" as="geometry"/>
                </mxCell>
                <mxCell id="614" value="" style="verticalLabelPosition=bottom;shadow=0;dashed=0;align=center;html=1;verticalAlign=top;strokeWidth=1;shape=mxgraph.mockup.markup.line;strokeColor=#999999;fontSize=20;" parent="1" vertex="1">
                    <mxGeometry x="300" y="1370" width="670" height="20" as="geometry"/>
                </mxCell>
                <mxCell id="615" value="" style="verticalLabelPosition=bottom;shadow=0;dashed=0;align=center;html=1;verticalAlign=top;strokeWidth=1;shape=mxgraph.mockup.markup.line;strokeColor=#999999;fontSize=20;" parent="1" vertex="1">
                    <mxGeometry x="300" y="1410" width="670" height="20" as="geometry"/>
                </mxCell>
                <mxCell id="627" value="Free in-store pick up" style="text;html=1;strokeColor=none;fillColor=none;align=left;verticalAlign=middle;whiteSpace=wrap;rounded=0;fontSize=14;" parent="1" vertex="1">
                    <mxGeometry x="300" y="1310" width="170" height="30" as="geometry"/>
                </mxCell>
                <mxCell id="628" value="Free standard shipping" style="text;html=1;strokeColor=none;fillColor=none;align=left;verticalAlign=middle;whiteSpace=wrap;rounded=0;fontSize=14;" parent="1" vertex="1">
                    <mxGeometry x="300" y="1350" width="170" height="30" as="geometry"/>
                </mxCell>
                <mxCell id="629" value="Free express shipping" style="text;html=1;strokeColor=none;fillColor=none;align=left;verticalAlign=middle;whiteSpace=wrap;rounded=0;fontSize=14;" parent="1" vertex="1">
                    <mxGeometry x="300" y="1390" width="170" height="30" as="geometry"/>
                </mxCell>
                <mxCell id="630" value="" style="verticalLabelPosition=bottom;shadow=0;dashed=0;align=center;html=1;verticalAlign=top;strokeWidth=1;shape=mxgraph.mockup.markup.line;strokeColor=#999999;fontSize=20;" parent="1" vertex="1">
                    <mxGeometry x="300" y="1450" width="670" height="20" as="geometry"/>
                </mxCell>
                <mxCell id="631" value="" style="verticalLabelPosition=bottom;shadow=0;dashed=0;align=center;html=1;verticalAlign=top;strokeWidth=1;shape=mxgraph.mockup.markup.line;strokeColor=#999999;fontSize=20;" parent="1" vertex="1">
                    <mxGeometry x="300" y="1490" width="670" height="20" as="geometry"/>
                </mxCell>
                <mxCell id="632" value="New-release reservation" style="text;html=1;strokeColor=none;fillColor=none;align=left;verticalAlign=middle;whiteSpace=wrap;rounded=0;fontSize=14;" parent="1" vertex="1">
                    <mxGeometry x="300" y="1430" width="170" height="30" as="geometry"/>
                </mxCell>
                <mxCell id="633" value="Access to weekly lucky draw" style="text;html=1;strokeColor=none;fillColor=none;align=left;verticalAlign=middle;whiteSpace=wrap;rounded=0;fontSize=14;" parent="1" vertex="1">
                    <mxGeometry x="300" y="1470" width="190" height="30" as="geometry"/>
                </mxCell>
                <mxCell id="636" value="" style="html=1;verticalLabelPosition=bottom;labelBackgroundColor=#ffffff;verticalAlign=top;shadow=0;dashed=0;strokeWidth=2;shape=mxgraph.ios7.misc.check;strokeColor=#000000;fontSize=16;" parent="1" vertex="1">
                    <mxGeometry x="895" y="1320" width="10" height="8" as="geometry"/>
                </mxCell>
                <mxCell id="637" value="" style="html=1;verticalLabelPosition=bottom;labelBackgroundColor=#ffffff;verticalAlign=top;shadow=0;dashed=0;strokeWidth=2;shape=mxgraph.ios7.misc.check;strokeColor=#000000;fontSize=16;" parent="1" vertex="1">
                    <mxGeometry x="730" y="1360" width="10" height="8" as="geometry"/>
                </mxCell>
                <mxCell id="638" value="" style="html=1;verticalLabelPosition=bottom;labelBackgroundColor=#ffffff;verticalAlign=top;shadow=0;dashed=0;strokeWidth=2;shape=mxgraph.ios7.misc.check;strokeColor=#000000;fontSize=16;" parent="1" vertex="1">
                    <mxGeometry x="895" y="1360" width="10" height="8" as="geometry"/>
                </mxCell>
                <mxCell id="639" value="" style="html=1;verticalLabelPosition=bottom;labelBackgroundColor=#ffffff;verticalAlign=top;shadow=0;dashed=0;strokeWidth=2;shape=mxgraph.ios7.misc.check;strokeColor=#000000;fontSize=16;" parent="1" vertex="1">
                    <mxGeometry x="895" y="1400" width="10" height="8" as="geometry"/>
                </mxCell>
                <mxCell id="640" value="" style="html=1;verticalLabelPosition=bottom;labelBackgroundColor=#ffffff;verticalAlign=top;shadow=0;dashed=0;strokeWidth=2;shape=mxgraph.ios7.misc.check;strokeColor=#000000;fontSize=16;" parent="1" vertex="1">
                    <mxGeometry x="895" y="1440" width="10" height="8" as="geometry"/>
                </mxCell>
                <mxCell id="641" value="" style="html=1;verticalLabelPosition=bottom;labelBackgroundColor=#ffffff;verticalAlign=top;shadow=0;dashed=0;strokeWidth=2;shape=mxgraph.ios7.misc.check;strokeColor=#000000;fontSize=16;" parent="1" vertex="1">
                    <mxGeometry x="895" y="1480" width="10" height="8" as="geometry"/>
                </mxCell>
                <mxCell id="648" value="Compare Plans" style="text;html=1;strokeColor=none;fillColor=none;align=center;verticalAlign=middle;whiteSpace=wrap;rounded=0;fontSize=24;" parent="1" vertex="1">
                    <mxGeometry x="1182.5" y="1665" width="195" height="30" as="geometry"/>
                </mxCell>
                <mxCell id="649" value="" style="verticalLabelPosition=bottom;shadow=0;dashed=0;align=center;html=1;verticalAlign=top;strokeWidth=1;shape=mxgraph.mockup.markup.line;strokeColor=#999999;fontSize=20;" parent="1" vertex="1">
                    <mxGeometry x="1120" y="1755" width="320" height="20" as="geometry"/>
                </mxCell>
                <mxCell id="650" value="Basic" style="text;html=1;strokeColor=none;fillColor=none;align=center;verticalAlign=middle;whiteSpace=wrap;rounded=0;fontSize=16;" parent="1" vertex="1">
                    <mxGeometry x="1254.0298507462685" y="1735" width="38.50746268656717" height="30" as="geometry"/>
                </mxCell>
                <mxCell id="651" value="Elite" style="text;html=1;strokeColor=none;fillColor=none;align=center;verticalAlign=middle;whiteSpace=wrap;rounded=0;fontSize=16;" parent="1" vertex="1">
                    <mxGeometry x="1395.8208955223881" y="1735" width="38.50746268656717" height="30" as="geometry"/>
                </mxCell>
                <mxCell id="652" value="Pro" style="text;html=1;strokeColor=none;fillColor=none;align=center;verticalAlign=middle;whiteSpace=wrap;rounded=0;fontSize=16;" parent="1" vertex="1">
                    <mxGeometry x="1329.9253731343283" y="1735" width="38.50746268656717" height="30" as="geometry"/>
                </mxCell>
                <mxCell id="653" value="Number of rental at a time" style="text;html=1;strokeColor=none;fillColor=none;align=left;verticalAlign=middle;whiteSpace=wrap;rounded=0;fontSize=14;" parent="1" vertex="1">
                    <mxGeometry x="1120" y="1775" width="109.10447761194033" height="30" as="geometry"/>
                </mxCell>
                <mxCell id="654" value="1" style="text;html=1;strokeColor=none;fillColor=none;align=center;verticalAlign=middle;whiteSpace=wrap;rounded=0;fontSize=16;" parent="1" vertex="1">
                    <mxGeometry x="1254.0298507462685" y="1775" width="38.50746268656717" height="30" as="geometry"/>
                </mxCell>
                <mxCell id="655" value="3" style="text;html=1;strokeColor=none;fillColor=none;align=center;verticalAlign=middle;whiteSpace=wrap;rounded=0;fontSize=16;" parent="1" vertex="1">
                    <mxGeometry x="1329.9253731343283" y="1775" width="38.50746268656717" height="30" as="geometry"/>
                </mxCell>
                <mxCell id="656" value="5" style="text;html=1;strokeColor=none;fillColor=none;align=center;verticalAlign=middle;whiteSpace=wrap;rounded=0;fontSize=16;" parent="1" vertex="1">
                    <mxGeometry x="1395.8208955223881" y="1775" width="38.50746268656717" height="30" as="geometry"/>
                </mxCell>
                <mxCell id="657" value="" style="html=1;verticalLabelPosition=bottom;labelBackgroundColor=#ffffff;verticalAlign=top;shadow=0;dashed=0;strokeWidth=2;shape=mxgraph.ios7.misc.check;strokeColor=#000000;fontSize=16;" parent="1" vertex="1">
                    <mxGeometry x="1270.0746268656717" y="1825" width="6.417910447761194" height="8" as="geometry"/>
                </mxCell>
                <mxCell id="658" value="" style="html=1;verticalLabelPosition=bottom;labelBackgroundColor=#ffffff;verticalAlign=top;shadow=0;dashed=0;strokeWidth=2;shape=mxgraph.ios7.misc.check;strokeColor=#000000;fontSize=16;" parent="1" vertex="1">
                    <mxGeometry x="1345.9701492537315" y="1825" width="6.417910447761194" height="8" as="geometry"/>
                </mxCell>
                <mxCell id="659" value="" style="verticalLabelPosition=bottom;shadow=0;dashed=0;align=center;html=1;verticalAlign=top;strokeWidth=1;shape=mxgraph.mockup.markup.line;strokeColor=#999999;fontSize=20;" parent="1" vertex="1">
                    <mxGeometry x="1120" y="1795" width="320" height="20" as="geometry"/>
                </mxCell>
                <mxCell id="660" value="" style="verticalLabelPosition=bottom;shadow=0;dashed=0;align=center;html=1;verticalAlign=top;strokeWidth=1;shape=mxgraph.mockup.markup.line;strokeColor=#999999;fontSize=20;" parent="1" vertex="1">
                    <mxGeometry x="1120" y="1835" width="320" height="20" as="geometry"/>
                </mxCell>
                <mxCell id="661" value="" style="verticalLabelPosition=bottom;shadow=0;dashed=0;align=center;html=1;verticalAlign=top;strokeWidth=1;shape=mxgraph.mockup.markup.line;strokeColor=#999999;fontSize=20;" parent="1" vertex="1">
                    <mxGeometry x="1120" y="1875" width="320" height="20" as="geometry"/>
                </mxCell>
                <mxCell id="662" value="" style="verticalLabelPosition=bottom;shadow=0;dashed=0;align=center;html=1;verticalAlign=top;strokeWidth=1;shape=mxgraph.mockup.markup.line;strokeColor=#999999;fontSize=20;" parent="1" vertex="1">
                    <mxGeometry x="1120" y="1915" width="320" height="20" as="geometry"/>
                </mxCell>
                <mxCell id="663" value="Free in-store pick up" style="text;html=1;strokeColor=none;fillColor=none;align=left;verticalAlign=middle;whiteSpace=wrap;rounded=0;fontSize=14;" parent="1" vertex="1">
                    <mxGeometry x="1120" y="1815" width="109.10447761194033" height="30" as="geometry"/>
                </mxCell>
                <mxCell id="664" value="Free standard shipping" style="text;html=1;strokeColor=none;fillColor=none;align=left;verticalAlign=middle;whiteSpace=wrap;rounded=0;fontSize=14;" parent="1" vertex="1">
                    <mxGeometry x="1120" y="1855" width="109.10447761194033" height="30" as="geometry"/>
                </mxCell>
                <mxCell id="665" value="Free express shipping" style="text;html=1;strokeColor=none;fillColor=none;align=left;verticalAlign=middle;whiteSpace=wrap;rounded=0;fontSize=14;" parent="1" vertex="1">
                    <mxGeometry x="1120" y="1895" width="109.10447761194033" height="30" as="geometry"/>
                </mxCell>
                <mxCell id="666" value="" style="verticalLabelPosition=bottom;shadow=0;dashed=0;align=center;html=1;verticalAlign=top;strokeWidth=1;shape=mxgraph.mockup.markup.line;strokeColor=#999999;fontSize=20;" parent="1" vertex="1">
                    <mxGeometry x="1120" y="1955" width="320" height="20" as="geometry"/>
                </mxCell>
                <mxCell id="667" value="" style="verticalLabelPosition=bottom;shadow=0;dashed=0;align=center;html=1;verticalAlign=top;strokeWidth=1;shape=mxgraph.mockup.markup.line;strokeColor=#999999;fontSize=20;" parent="1" vertex="1">
                    <mxGeometry x="1120" y="1995" width="320" height="20" as="geometry"/>
                </mxCell>
                <mxCell id="668" value="New-release reservation" style="text;html=1;strokeColor=none;fillColor=none;align=left;verticalAlign=middle;whiteSpace=wrap;rounded=0;fontSize=14;" parent="1" vertex="1">
                    <mxGeometry x="1120" y="1935" width="109.10447761194033" height="30" as="geometry"/>
                </mxCell>
                <mxCell id="669" value="Access to weekly lucky draw" style="text;html=1;strokeColor=none;fillColor=none;align=left;verticalAlign=middle;whiteSpace=wrap;rounded=0;fontSize=14;" parent="1" vertex="1">
                    <mxGeometry x="1120" y="1975" width="121.9402985074627" height="30" as="geometry"/>
                </mxCell>
                <mxCell id="670" value="" style="html=1;verticalLabelPosition=bottom;labelBackgroundColor=#ffffff;verticalAlign=top;shadow=0;dashed=0;strokeWidth=2;shape=mxgraph.ios7.misc.check;strokeColor=#000000;fontSize=16;" parent="1" vertex="1">
                    <mxGeometry x="1411.8656716417909" y="1825" width="6.417910447761194" height="8" as="geometry"/>
                </mxCell>
                <mxCell id="671" value="" style="html=1;verticalLabelPosition=bottom;labelBackgroundColor=#ffffff;verticalAlign=top;shadow=0;dashed=0;strokeWidth=2;shape=mxgraph.ios7.misc.check;strokeColor=#000000;fontSize=16;" parent="1" vertex="1">
                    <mxGeometry x="1345.9701492537315" y="1865" width="6.417910447761194" height="8" as="geometry"/>
                </mxCell>
                <mxCell id="672" value="" style="html=1;verticalLabelPosition=bottom;labelBackgroundColor=#ffffff;verticalAlign=top;shadow=0;dashed=0;strokeWidth=2;shape=mxgraph.ios7.misc.check;strokeColor=#000000;fontSize=16;" parent="1" vertex="1">
                    <mxGeometry x="1411.8656716417909" y="1865" width="6.417910447761194" height="8" as="geometry"/>
                </mxCell>
                <mxCell id="673" value="" style="html=1;verticalLabelPosition=bottom;labelBackgroundColor=#ffffff;verticalAlign=top;shadow=0;dashed=0;strokeWidth=2;shape=mxgraph.ios7.misc.check;strokeColor=#000000;fontSize=16;" parent="1" vertex="1">
                    <mxGeometry x="1411.8656716417909" y="1905" width="6.417910447761194" height="8" as="geometry"/>
                </mxCell>
                <mxCell id="674" value="" style="html=1;verticalLabelPosition=bottom;labelBackgroundColor=#ffffff;verticalAlign=top;shadow=0;dashed=0;strokeWidth=2;shape=mxgraph.ios7.misc.check;strokeColor=#000000;fontSize=16;" parent="1" vertex="1">
                    <mxGeometry x="1411.8656716417909" y="1945" width="6.417910447761194" height="8" as="geometry"/>
                </mxCell>
                <mxCell id="675" value="" style="html=1;verticalLabelPosition=bottom;labelBackgroundColor=#ffffff;verticalAlign=top;shadow=0;dashed=0;strokeWidth=2;shape=mxgraph.ios7.misc.check;strokeColor=#000000;fontSize=16;" parent="1" vertex="1">
                    <mxGeometry x="1411.8656716417909" y="1985" width="6.417910447761194" height="8" as="geometry"/>
                </mxCell>
                <mxCell id="704" value="" style="group" parent="1" vertex="1" connectable="0">
                    <mxGeometry x="210" y="590" width="850" height="70" as="geometry"/>
                </mxCell>
                <mxCell id="705" value="" style="rounded=0;whiteSpace=wrap;html=1;strokeColor=#000000;fillColor=none;" parent="704" vertex="1">
                    <mxGeometry width="850" height="70" as="geometry"/>
                </mxCell>
                <mxCell id="706" value="Gamestopia" style="text;strokeColor=none;fillColor=none;html=1;fontSize=24;fontStyle=1;verticalAlign=middle;align=center;" parent="704" vertex="1">
                    <mxGeometry x="15" y="15" width="160" height="40" as="geometry"/>
                </mxCell>
                <mxCell id="707" value="" style="group" parent="704" vertex="1" connectable="0">
                    <mxGeometry x="634" y="20" width="90" height="30" as="geometry"/>
                </mxCell>
                <mxCell id="708" value="" style="html=1;verticalLabelPosition=bottom;align=center;labelBackgroundColor=#ffffff;verticalAlign=top;strokeWidth=2;strokeColor=#000000;shadow=0;dashed=0;shape=mxgraph.ios7.icons.user;fillColor=none;" parent="707" vertex="1">
                    <mxGeometry width="30" height="30" as="geometry"/>
                </mxCell>
                <mxCell id="709" value="Hello,&lt;br&gt;Sign In" style="text;html=1;strokeColor=none;fillColor=none;align=left;verticalAlign=middle;whiteSpace=wrap;rounded=0;" parent="707" vertex="1">
                    <mxGeometry x="40" width="50" height="30" as="geometry"/>
                </mxCell>
                <mxCell id="710" value="" style="group" parent="704" vertex="1" connectable="0">
                    <mxGeometry x="528" y="20" width="80" height="30" as="geometry"/>
                </mxCell>
                <mxCell id="711" value="" style="html=1;verticalLabelPosition=bottom;align=center;labelBackgroundColor=#ffffff;verticalAlign=top;strokeWidth=2;strokeColor=#000000;shadow=0;dashed=0;shape=mxgraph.ios7.icons.globe;fontSize=15;fontColor=#000000;fillColor=none;" parent="710" vertex="1">
                    <mxGeometry width="30" height="30" as="geometry"/>
                </mxCell>
                <mxCell id="712" value="EN&amp;nbsp;" style="text;html=1;strokeColor=none;fillColor=none;align=left;verticalAlign=middle;whiteSpace=wrap;rounded=0;container=0;" parent="710" vertex="1">
                    <mxGeometry x="40" width="40" height="30" as="geometry"/>
                </mxCell>
                <mxCell id="713" value="" style="html=1;verticalLabelPosition=bottom;labelBackgroundColor=#ffffff;verticalAlign=top;shadow=0;dashed=0;strokeWidth=2;shape=mxgraph.ios7.misc.down;strokeColor=default;fontSize=15;fontColor=#000000;fillColor=none;container=0;" parent="710" vertex="1">
                    <mxGeometry x="63" y="14.120000000000005" width="8" height="3" as="geometry"/>
                </mxCell>
                <mxCell id="714" value="" style="group" parent="704" vertex="1" connectable="0">
                    <mxGeometry x="194" y="20.120000000000005" width="300" height="30" as="geometry"/>
                </mxCell>
                <mxCell id="715" value="" style="html=1;verticalLabelPosition=bottom;align=center;labelBackgroundColor=#ffffff;verticalAlign=top;strokeWidth=2;strokeColor=#000000;shadow=0;dashed=0;shape=mxgraph.ios7.icons.looking_glass;fontSize=15;fontColor=#000000;fillColor=none;" parent="714" vertex="1">
                    <mxGeometry x="270" y="4.939999999999998" width="20" height="20.12" as="geometry"/>
                </mxCell>
                <mxCell id="716" value="&amp;nbsp; Search" style="rounded=1;whiteSpace=wrap;html=1;strokeColor=#000000;fontSize=15;fontColor=#000000;fillColor=none;align=left;" parent="714" vertex="1">
                    <mxGeometry width="300" height="30" as="geometry"/>
                </mxCell>
                <mxCell id="717" value="" style="group" parent="704" vertex="1" connectable="0">
                    <mxGeometry x="750" y="20" width="87" height="30" as="geometry"/>
                </mxCell>
                <mxCell id="718" value="My Rentals" style="text;html=1;strokeColor=none;fillColor=none;align=left;verticalAlign=middle;whiteSpace=wrap;rounded=0;" parent="717" vertex="1">
                    <mxGeometry x="37" width="50" height="30" as="geometry"/>
                </mxCell>
                <mxCell id="719" value="" style="html=1;verticalLabelPosition=bottom;align=center;labelBackgroundColor=#ffffff;verticalAlign=top;strokeWidth=2;strokeColor=#000000;shadow=0;dashed=0;shape=mxgraph.ios7.icons.bookmark;" parent="717" vertex="1">
                    <mxGeometry width="22.5" height="30" as="geometry"/>
                </mxCell>
                <mxCell id="720" value="" style="group" parent="1" vertex="1" connectable="0">
                    <mxGeometry x="210" y="660" width="850" height="50" as="geometry"/>
                </mxCell>
                <mxCell id="721" value="" style="rounded=0;whiteSpace=wrap;html=1;strokeColor=default;fontColor=#000000;fillColor=none;" parent="720" vertex="1">
                    <mxGeometry width="850" height="50" as="geometry"/>
                </mxCell>
                <mxCell id="722" value="Trade-in" style="text;html=1;strokeColor=none;fillColor=none;align=center;verticalAlign=middle;whiteSpace=wrap;rounded=0;fontSize=17;" parent="720" vertex="1">
                    <mxGeometry x="294" y="10" width="100" height="30" as="geometry"/>
                </mxCell>
                <mxCell id="723" value="" style="group" parent="720" vertex="1" connectable="0">
                    <mxGeometry x="80" y="10" width="115" height="30" as="geometry"/>
                </mxCell>
                <mxCell id="724" value="All Games" style="text;html=1;strokeColor=none;fillColor=none;align=left;verticalAlign=middle;whiteSpace=wrap;rounded=0;fontSize=17;" parent="723" vertex="1">
                    <mxGeometry width="115" height="30" as="geometry"/>
                </mxCell>
                <mxCell id="725" value="" style="html=1;verticalLabelPosition=bottom;labelBackgroundColor=#ffffff;verticalAlign=top;shadow=0;dashed=0;strokeWidth=2;shape=mxgraph.ios7.misc.down;strokeColor=default;fontSize=15;fontColor=#000000;fillColor=none;container=0;" parent="723" vertex="1">
                    <mxGeometry x="95" y="13.5" width="8" height="3" as="geometry"/>
                </mxCell>
                <mxCell id="726" value="Pricing" style="text;html=1;strokeColor=none;fillColor=none;align=center;verticalAlign=middle;whiteSpace=wrap;rounded=0;fontSize=17;" parent="720" vertex="1">
                    <mxGeometry x="480" y="10" width="100" height="30" as="geometry"/>
                </mxCell>
                <mxCell id="727" value="How it works" style="text;html=1;strokeColor=none;fillColor=none;align=center;verticalAlign=middle;whiteSpace=wrap;rounded=0;fontSize=17;" parent="720" vertex="1">
                    <mxGeometry x="648.75" y="10" width="114" height="30" as="geometry"/>
                </mxCell>
                <mxCell id="728" value="" style="group" parent="1" vertex="1" connectable="0">
                    <mxGeometry x="1100" y="590" width="360" height="70" as="geometry"/>
                </mxCell>
                <mxCell id="729" value="" style="rounded=0;whiteSpace=wrap;html=1;strokeColor=default;fontSize=13;fontColor=#000000;fillColor=none;" parent="728" vertex="1">
                    <mxGeometry width="360" height="70" as="geometry"/>
                </mxCell>
                <mxCell id="730" value="Gamestopia" style="text;strokeColor=none;fillColor=none;html=1;fontSize=24;fontStyle=1;verticalAlign=middle;align=center;" parent="728" vertex="1">
                    <mxGeometry x="80" y="17.5" width="160" height="40" as="geometry"/>
                </mxCell>
                <mxCell id="731" value="" style="html=1;verticalLabelPosition=bottom;align=center;labelBackgroundColor=#ffffff;verticalAlign=top;strokeWidth=2;strokeColor=#000000;shadow=0;dashed=0;shape=mxgraph.ios7.icons.user;fillColor=none;" parent="728" vertex="1">
                    <mxGeometry x="260" y="20" width="30" height="30" as="geometry"/>
                </mxCell>
                <mxCell id="732" value="" style="html=1;verticalLabelPosition=bottom;labelBackgroundColor=#ffffff;verticalAlign=top;shadow=0;dashed=0;strokeWidth=2;shape=mxgraph.ios7.misc.options;fillColor=#222222;sketch=0;strokeColor=default;fontSize=13;fontColor=#000000;" parent="728" vertex="1">
                    <mxGeometry x="20" y="25" width="30" height="25" as="geometry"/>
                </mxCell>
                <mxCell id="733" value="" style="html=1;verticalLabelPosition=bottom;align=center;labelBackgroundColor=#ffffff;verticalAlign=top;strokeWidth=2;strokeColor=#000000;shadow=0;dashed=0;shape=mxgraph.ios7.icons.bookmark;" parent="728" vertex="1">
                    <mxGeometry x="310" y="20" width="22.5" height="30" as="geometry"/>
                </mxCell>
                <mxCell id="688" value="&lt;p style=&quot;line-height: 150%;&quot;&gt;&lt;span style=&quot;font-size: 20px;&quot;&gt;&lt;b&gt;&lt;br&gt;&lt;br&gt;$35/mo&lt;/b&gt;&lt;/span&gt;&lt;br style=&quot;font-size: 14px&quot;&gt;&lt;br style=&quot;font-size: 14px&quot;&gt;Three games out at a time&lt;br&gt;Free standard shipping&lt;/p&gt;" style="html=1;shadow=0;dashed=0;shape=mxgraph.bootstrap.rrect;rSize=5;strokeColor=#6C767D;html=1;whiteSpace=wrap;fillColor=#ffffff;fontColor=#212529;verticalAlign=top;align=center;spacing=20;spacingBottom=0;fontSize=14;" parent="1" vertex="1">
                    <mxGeometry x="1170" y="1080" width="220" height="245" as="geometry"/>
                </mxCell>
                <mxCell id="689" value="Pro" style="html=1;shadow=0;dashed=0;shape=mxgraph.bootstrap.topButton;rSize=5;perimeter=none;whiteSpace=wrap;fillColor=#F7F7F7;strokeColor=#6C767D;fontColor=#6C767D;resizeWidth=1;fontSize=18;align=center;spacing=20;" parent="688" vertex="1">
                    <mxGeometry width="220" height="50" relative="1" as="geometry"/>
                </mxCell>
                <mxCell id="690" value="&lt;p style=&quot;line-height: 150%;&quot;&gt;&lt;span style=&quot;font-size: 20px;&quot;&gt;&lt;b&gt;&lt;br&gt;&lt;br&gt;$55/mo&lt;/b&gt;&lt;/span&gt;&lt;br style=&quot;font-size: 14px&quot;&gt;&lt;br style=&quot;font-size: 14px&quot;&gt;Five games out at a time&lt;br&gt;Free express shipping&lt;br&gt;New-release reservation&lt;br&gt;Access to lucky draw&lt;/p&gt;" style="html=1;shadow=0;dashed=0;shape=mxgraph.bootstrap.rrect;rSize=5;strokeColor=#6C767D;html=1;whiteSpace=wrap;fillColor=#ffffff;fontColor=#212529;verticalAlign=top;align=center;spacing=20;spacingBottom=0;fontSize=14;" parent="1" vertex="1">
                    <mxGeometry x="1170" y="1370" width="220" height="245" as="geometry"/>
                </mxCell>
                <mxCell id="691" value="Elite" style="html=1;shadow=0;dashed=0;shape=mxgraph.bootstrap.topButton;rSize=5;perimeter=none;whiteSpace=wrap;fillColor=#F7F7F7;strokeColor=#6C767D;fontColor=#6C767D;resizeWidth=1;fontSize=18;align=center;spacing=20;" parent="690" vertex="1">
                    <mxGeometry width="220" height="50" relative="1" as="geometry"/>
                </mxCell>
                <mxCell id="702" value="&lt;p style=&quot;line-height: 150%;&quot;&gt;&lt;span style=&quot;font-size: 20px;&quot;&gt;&lt;b&gt;&lt;br&gt;&lt;br&gt;$20/mo&lt;/b&gt;&lt;/span&gt;&lt;br style=&quot;font-size: 14px&quot;&gt;&lt;br style=&quot;font-size: 14px&quot;&gt;One game out at a time&lt;br&gt;&lt;br&gt;&lt;/p&gt;" style="html=1;shadow=0;dashed=0;shape=mxgraph.bootstrap.rrect;rSize=5;strokeColor=#6C767D;html=1;whiteSpace=wrap;fillColor=#ffffff;fontColor=#212529;verticalAlign=top;align=center;spacing=20;spacingBottom=0;fontSize=14;" parent="1" vertex="1">
                    <mxGeometry x="1170" y="800" width="220" height="245" as="geometry"/>
                </mxCell>
                <mxCell id="703" value="Basic" style="html=1;shadow=0;dashed=0;shape=mxgraph.bootstrap.topButton;rSize=5;perimeter=none;whiteSpace=wrap;fillColor=#F7F7F7;strokeColor=#6C767D;fontColor=#6C767D;resizeWidth=1;fontSize=18;align=center;spacing=20;" parent="702" vertex="1">
                    <mxGeometry width="220" height="50" relative="1" as="geometry"/>
                </mxCell>
            </root>
        </mxGraphModel>
    </diagram>
</mxfile>